<svg xmlns="http://www.w3.org/2000/svg" width="270" height="45" fill="none" viewBox="0 0 270 45">
  <path fill="#F78500" d="M118.24 14.338h8.515a11.03 11.03 0 0 1 7.813 3.25 11.011 11.011 0 0 1 0 15.626 11.03 11.03 0 0 1-7.813 3.25H107V6h19.401c5.339 0 10.188 2.182 13.703 5.703 3.521 3.516 5.703 8.365 5.703 13.703 0 5.339-2.182 10.193-5.703 13.709-3.515 3.515-8.364 5.697-13.703 5.697H107v-5.098h19.401c3.932 0 7.505-1.61 10.104-4.204 2.589-2.593 4.203-6.171 4.203-10.104 0-3.932-1.614-7.505-4.203-10.104-2.594-2.588-6.172-4.203-10.104-4.203h-14.307v20.266h14.651c1.64 0 3.135-.667 4.213-1.756a5.94 5.94 0 0 0 1.756-4.208 5.962 5.962 0 0 0-1.756-4.213 5.936 5.936 0 0 0-4.213-1.756h-5.964v3.594h3.386a2.554 2.554 0 0 1 2.547 2.547 2.559 2.559 0 0 1-2.547 2.552h-8.485V14.338h2.558Z"/>
  <path fill="#fff" d="M13.08 9.64h6.04l2.96 9.08 2.96-9.08h6.08l-4.84 13.2 2.88 7.56 7.12-20.8h7.16L32.36 38h-5.68l-4.6-11.12L17.52 38H11.8L.76 9.6h7.12l7.16 20.8 2.8-7.56-4.76-13.2Zm44.174 28.6c-2.134 0-4.067-.4-5.8-1.2a14.675 14.675 0 0 1-4.44-3.28 15.42 15.42 0 0 1-2.84-4.64c-.667-1.733-1-3.52-1-5.36a14.2 14.2 0 0 1 1.04-5.4 15.262 15.262 0 0 1 2.96-4.56 13.939 13.939 0 0 1 4.52-3.2c1.733-.773 3.626-1.16 5.68-1.16 2.106 0 4.013.413 5.72 1.24 1.733.8 3.213 1.893 4.44 3.28a14.903 14.903 0 0 1 2.88 4.68 14.3 14.3 0 0 1 1 5.24c0 1.893-.347 3.693-1.04 5.4a14.775 14.775 0 0 1-2.96 4.6 14.794 14.794 0 0 1-4.52 3.2c-1.707.773-3.587 1.16-5.64 1.16Zm-7.4-14.4c0 1.093.16 2.16.48 3.2a8.767 8.767 0 0 0 1.4 2.72 7.2 7.2 0 0 0 2.36 1.92c.933.48 2 .72 3.2.72 1.253 0 2.346-.24 3.28-.72a7.015 7.015 0 0 0 2.32-2 8.611 8.611 0 0 0 1.36-2.76c.32-1.04.48-2.093.48-3.16 0-1.093-.16-2.147-.48-3.16a8.323 8.323 0 0 0-1.44-2.72 6.588 6.588 0 0 0-2.36-1.92c-.934-.453-1.987-.68-3.16-.68-1.254 0-2.347.24-3.28.72a7.118 7.118 0 0 0-2.32 1.96 8.69 8.69 0 0 0-1.4 2.76 11.162 11.162 0 0 0-.44 3.12Zm37.79 14.4c-2.133 0-4.066-.4-5.8-1.2a14.675 14.675 0 0 1-4.44-3.28 15.42 15.42 0 0 1-2.84-4.64c-.666-1.733-1-3.52-1-5.36 0-1.893.347-3.693 1.04-5.4a15.262 15.262 0 0 1 2.96-4.56 13.939 13.939 0 0 1 4.52-3.2c1.734-.773 3.627-1.16 5.68-1.16 2.107 0 4.014.413 5.72 1.24 1.734.8 3.214 1.893 4.44 3.28a14.89 14.89 0 0 1 2.88 4.68 14.28 14.28 0 0 1 1 5.24 14.2 14.2 0 0 1-1.04 5.4 14.767 14.767 0 0 1-2.96 4.6 14.794 14.794 0 0 1-4.52 3.2c-1.706.773-3.586 1.16-5.64 1.16Zm-7.4-14.4c0 1.093.16 2.16.48 3.2a8.767 8.767 0 0 0 1.4 2.72 7.2 7.2 0 0 0 2.36 1.92c.934.48 2 .72 3.2.72 1.254 0 2.347-.24 3.28-.72a7.015 7.015 0 0 0 2.32-2 8.611 8.611 0 0 0 1.36-2.76c.32-1.04.48-2.093.48-3.16 0-1.093-.16-2.147-.48-3.16a8.323 8.323 0 0 0-1.44-2.72 6.588 6.588 0 0 0-2.36-1.92c-.933-.453-1.986-.68-3.16-.68-1.253 0-2.346.24-3.28.72a7.118 7.118 0 0 0-2.32 1.96 8.69 8.69 0 0 0-1.4 2.76 11.162 11.162 0 0 0-.44 3.12Zm91.991 8.4V38h-19.96V9.6h19.6v5.76h-13.04v5.52h11.2v5.32h-11.2v6.04h13.4Zm21.025-14.32c-.08-.133-.36-.333-.84-.6-.48-.293-1.08-.6-1.8-.92-.72-.32-1.507-.6-2.36-.84a9.417 9.417 0 0 0-2.56-.36c-1.12 0-1.987.2-2.6.6-.613.373-.92.96-.92 1.76 0 .64.227 1.147.68 1.52.48.373 1.16.707 2.04 1 .88.267 1.96.587 3.24.96 1.813.48 3.387 1.067 4.72 1.76 1.333.667 2.347 1.533 3.04 2.6.72 1.067 1.08 2.48 1.08 4.24 0 1.6-.293 2.96-.88 4.08a7.494 7.494 0 0 1-2.4 2.68c-.987.667-2.12 1.16-3.4 1.48-1.28.293-2.6.44-3.96.44-1.387 0-2.813-.133-4.28-.4a26.666 26.666 0 0 1-4.16-1.2 20.009 20.009 0 0 1-3.68-1.92l2.88-5.72c.107.133.453.387 1.04.76.587.347 1.307.72 2.16 1.12.88.373 1.853.707 2.92 1 1.067.293 2.147.44 3.24.44 1.173 0 2.04-.187 2.6-.56.587-.373.88-.893.88-1.56 0-.72-.307-1.28-.92-1.68-.587-.4-1.4-.76-2.44-1.08a258.81 258.81 0 0 0-3.52-1.08c-1.733-.533-3.173-1.133-4.32-1.8-1.12-.667-1.96-1.48-2.52-2.44-.533-.96-.8-2.16-.8-3.6 0-2 .467-3.68 1.4-5.04.96-1.387 2.24-2.427 3.84-3.12 1.6-.72 3.347-1.08 5.24-1.08 1.333 0 2.613.16 3.84.48 1.253.32 2.413.72 3.48 1.2 1.093.48 2.067.96 2.92 1.44l-2.88 5.44ZM200.829 38V9.6h6.56V38h-6.56Zm24.033.2c-1.867 0-3.627-.347-5.28-1.04a13.687 13.687 0 0 1-4.36-3c-1.254-1.307-2.24-2.84-2.96-4.6-.694-1.787-1.04-3.773-1.04-5.96 0-1.973.36-3.813 1.08-5.52a14.392 14.392 0 0 1 3-4.52 13.608 13.608 0 0 1 4.48-3.04c1.733-.747 3.6-1.12 5.6-1.12 2.613 0 4.92.56 6.92 1.68 2 1.12 3.48 2.627 4.44 4.52l-4.88 3.68a7.134 7.134 0 0 0-2.8-2.96 7.482 7.482 0 0 0-3.92-1.08 6.523 6.523 0 0 0-2.96.68 6.947 6.947 0 0 0-2.32 1.84c-.64.773-1.134 1.68-1.48 2.72-.347 1.04-.52 2.16-.52 3.36 0 1.227.186 2.36.56 3.4a8.522 8.522 0 0 0 1.56 2.72 7.287 7.287 0 0 0 2.36 1.76c.933.427 1.96.64 3.08.64a8.01 8.01 0 0 0 3.88-1c1.253-.693 2.4-1.707 3.44-3.04v6.48c-2.267 2.267-4.894 3.4-7.88 3.4Zm7.48-10.28h-5.52v-4.76h10.96V38h-5.44V27.92Zm16.336-6.16V38h-6.56V9.6h5.2l13.16 16.72V9.6h6.56V38h-5.36l-13-16.24Z"/>
</svg>
