<svg xmlns="http://www.w3.org/2000/svg" width="270" height="33" fill="none" viewBox="0 0 270 33">
  <path fill="#F78500" d="M127.137 7.02h7.68c2.743 0 5.238 1.047 7.046 2.735 1.809 1.683 2.931 4.011 2.931 6.576 0 2.565-1.122 4.893-2.931 6.576-1.808 1.688-4.303 2.736-7.046 2.736H117V0h17.498c4.814 0 9.188 1.837 12.358 4.8C150.032 7.76 152 11.843 152 16.337c0 4.493-1.968 8.58-5.144 11.539-3.17 2.96-7.544 4.796-12.358 4.796H117V28.38h17.498c3.546 0 6.769-1.355 9.113-3.538 2.334-2.184 3.79-5.195 3.79-8.506 0-3.31-1.456-6.317-3.79-8.505-2.34-2.179-5.567-3.538-9.113-3.538h-12.904v17.059h13.214c1.479 0 2.827-.561 3.8-1.477.977-.912 1.583-2.166 1.583-3.543 0-1.377-.606-2.63-1.583-3.547a5.553 5.553 0 0 0-3.8-1.477h-5.379v3.025h3.053c1.264 0 2.297.964 2.297 2.144 0 1.18-1.033 2.148-2.297 2.148h-7.652V7.02h2.307Z"/>
  <path fill="#171A1A" d="M21.08 1.64h6.04l2.96 9.08 2.96-9.08h6.08l-4.84 13.2 2.88 7.56 7.12-20.8h7.16L40.36 30h-5.68l-4.6-11.12L25.52 30H19.8L8.76 1.6h7.12l7.16 20.8 2.8-7.56-4.76-13.2Zm44.174 28.6c-2.134 0-4.067-.4-5.8-1.2a14.675 14.675 0 0 1-4.44-3.28 15.42 15.42 0 0 1-2.84-4.64c-.667-1.733-1-3.52-1-5.36a14.2 14.2 0 0 1 1.04-5.4 15.263 15.263 0 0 1 2.96-4.56 13.94 13.94 0 0 1 4.52-3.2c1.733-.773 3.626-1.16 5.68-1.16 2.106 0 4.013.413 5.72 1.24 1.733.8 3.213 1.893 4.44 3.28a14.903 14.903 0 0 1 2.88 4.68 14.3 14.3 0 0 1 1 5.24c0 1.893-.347 3.693-1.04 5.4a14.775 14.775 0 0 1-2.96 4.6 14.794 14.794 0 0 1-4.52 3.2c-1.707.773-3.587 1.16-5.64 1.16Zm-7.4-14.4c0 1.093.16 2.16.48 3.2a8.767 8.767 0 0 0 1.4 2.72 7.2 7.2 0 0 0 2.36 1.92c.933.48 2 .72 3.2.72 1.253 0 2.346-.24 3.28-.72a7.015 7.015 0 0 0 2.32-2 8.611 8.611 0 0 0 1.36-2.76c.32-1.04.48-2.093.48-3.16 0-1.093-.16-2.147-.48-3.16a8.323 8.323 0 0 0-1.44-2.72 6.588 6.588 0 0 0-2.36-1.92c-.934-.453-1.987-.68-3.16-.68-1.254 0-2.347.24-3.28.72a7.119 7.119 0 0 0-2.32 1.96 8.69 8.69 0 0 0-1.4 2.76 11.162 11.162 0 0 0-.44 3.12Zm37.79 14.4c-2.133 0-4.066-.4-5.8-1.2a14.675 14.675 0 0 1-4.44-3.28 15.42 15.42 0 0 1-2.84-4.64c-.666-1.733-1-3.52-1-5.36 0-1.893.347-3.693 1.04-5.4a15.263 15.263 0 0 1 2.96-4.56 13.94 13.94 0 0 1 4.52-3.2c1.734-.773 3.627-1.16 5.68-1.16 2.107 0 4.014.413 5.72 1.24 1.734.8 3.214 1.893 4.44 3.28a14.877 14.877 0 0 1 2.88 4.68 14.28 14.28 0 0 1 1 5.24 14.2 14.2 0 0 1-1.04 5.4 14.768 14.768 0 0 1-2.96 4.6 14.785 14.785 0 0 1-4.52 3.2c-1.706.773-3.586 1.16-5.64 1.16Zm-7.4-14.4c0 1.093.16 2.16.48 3.2a8.767 8.767 0 0 0 1.4 2.72 7.2 7.2 0 0 0 2.36 1.92c.934.48 2 .72 3.2.72 1.254 0 2.347-.24 3.28-.72a7.01 7.01 0 0 0 2.32-2 8.588 8.588 0 0 0 1.36-2.76c.32-1.04.48-2.093.48-3.16 0-1.093-.16-2.147-.48-3.16a8.323 8.323 0 0 0-1.44-2.72 6.587 6.587 0 0 0-2.36-1.92c-.933-.453-1.986-.68-3.16-.68-1.253 0-2.346.24-3.28.72a7.119 7.119 0 0 0-2.32 1.96 8.69 8.69 0 0 0-1.4 2.76 11.162 11.162 0 0 0-.44 3.12Zm92.499-8.48h-8.64V30h-6.56V7.36h-8.68V1.6h23.88v5.76Zm23.164 16.88V30h-19.96V1.6h19.6v5.76h-13.04v5.52h11.2v5.32h-11.2v6.04h13.4Zm1.876-8.68c0-1.733.32-3.427.96-5.08a14.42 14.42 0 0 1 2.8-4.56c1.227-1.36 2.72-2.44 4.48-3.24 1.76-.827 3.76-1.24 6-1.24 2.667 0 4.973.573 6.92 1.72 1.973 1.147 3.44 2.64 4.4 4.48l-5.04 3.52c-.427-1.013-1-1.8-1.72-2.36a5.948 5.948 0 0 0-2.32-1.16 8.597 8.597 0 0 0-2.4-.36c-1.253 0-2.347.253-3.28.76a6.612 6.612 0 0 0-2.32 1.96 8.609 8.609 0 0 0-1.36 2.76 10.9 10.9 0 0 0-.44 3.04c0 1.12.173 2.2.52 3.24.347 1.04.84 1.96 1.48 2.76.667.8 1.467 1.44 2.4 1.92.933.453 1.96.68 3.08.68.8 0 1.613-.133 2.44-.4a7.04 7.04 0 0 0 2.28-1.24c.72-.587 1.267-1.347 1.64-2.28l5.36 3.16c-.56 1.387-1.48 2.573-2.76 3.56-1.28.987-2.733 1.747-4.36 2.28-1.6.507-3.187.76-4.76.76-2.053 0-3.947-.413-5.68-1.24a14.909 14.909 0 0 1-4.44-3.36 16.487 16.487 0 0 1-2.88-4.72c-.667-1.76-1-3.547-1-5.36ZM259.402 1.6V30h-6.56V18.36h-11.32V30h-6.56V1.6h6.56v11h11.32v-11h6.56Z"/>
</svg>
